<svg version="1.2" xmlns="http://www.w3.org/2000/svg" viewBox="0 0 1254.313 1525.828" width="2060" height="2060">
  <style>.a{fill:#1a3023}.b{fill:#193023}.c{fill:#1a3022}.d{fill:#1a3123}.e{fill:#1b3022}.f{fill:#cc7405}.g{fill:#222c19}.h{fill:#335941}.i{fill:#222b19}.j{fill:#222b18}.k{fill:#ca7305}.l{fill:#232b18}.m{fill:#222a17}.n{fill:#173024}</style>
  <path class="f" d="M 520.065 547.419 L 705.665 547.419 L 827.965 561.019 L 936.565 588.219 L 1008.97 615.419 L 1022.57 638.119 L 1045.17 728.919 L 1081.37 806.019 L 1113.07 846.919 L 1144.77 883.219 L 1167.47 901.319 L 1162.87 914.919 L 1117.67 914.919 L 1081.37 910.419 L 1094.97 951.219 L 1117.67 1010.22 L 1126.67 1064.72 L 1122.17 1101.02 L 1099.47 1091.92 L 1076.87 1078.32 L 1058.77 1078.32 L 1040.67 1160.02 L 1018.07 1214.42 L 981.865 1268.82 L 936.565 1309.72 L 922.965 1309.72 L 909.365 1241.62 L 900.365 1232.62 L 864.165 1305.12 L 827.965 1355.12 L 787.165 1391.42 L 760.065 1400.42 L 750.965 1327.82 L 746.465 1318.82 L 714.765 1377.82 L 683.065 1418.62 L 633.265 1464.02 L 615.165 1473.02 L 592.565 1468.52 L 533.665 1414.12 L 501.965 1373.22 L 474.865 1323.32 L 465.765 1318.82 L 461.265 1355.12 L 461.265 1395.92 L 447.665 1400.42 L 411.465 1373.22 L 370.765 1332.42 L 334.465 1268.82 L 320.965 1228.02 L 302.865 1246.22 L 293.765 1314.22 L 266.565 1300.62 L 234.965 1268.82 L 198.665 1214.42 L 176.065 1150.92 L 157.965 1073.72 L 130.765 1082.82 L 112.665 1096.42 L 94.565 1091.92 L 94.565 1055.62 L 103.665 1005.72 L 130.765 942.119 L 135.365 914.919 L 53.865 914.919 L 58.365 896.819 L 94.565 860.519 L 130.765 810.519 L 171.565 733.419 L 189.665 669.919 L 203.265 624.519 L 230.365 606.419 L 280.165 588.219 L 397.865 561.019 L 520.065 547.419 Z"></path>
  <path class="g" d="M 240.865 8.719 L 271.165 2.919 L 267.665 37.419 L 266.565 66.419 L 263.765 93.619 L 268.365 127.919 L 274.865 157.519 L 289.265 184.419 L 325.465 216.119 L 348.065 207.019 L 397.865 170.719 L 461.265 139.019 L 538.165 116.319 L 560.165 102.819 L 582.565 89.719 L 678.565 89.119 L 701.165 102.719 L 728.365 120.819 L 787.165 139.019 L 841.465 161.719 L 891.265 193.419 L 913.965 211.619 L 936.565 207.019 L 968.265 179.819 L 983.465 142.819 L 993.369 104.919 L 1001.77 65.519 L 1002.97 40.019 L 995.669 2.419 L 1031.97 20.519 L 1063.37 42.719 L 1093.77 68.819 L 1112.27 95.219 L 1131.17 125.419 L 1140.27 166.219 L 1144.77 229.719 L 1135.77 284.219 L 1104.07 343.219 L 1063.27 384.019 L 1049.77 393.119 L 1063.27 447.519 L 1072.37 465.719 L 1081.37 465.719 L 1099.47 511.119 L 1099.47 592.719 L 1085.97 620.019 L 1090.47 656.319 L 1122.17 751.619 L 1149.27 796.919 L 1185.57 842.319 L 1239.87 887.719 L 1248.87 901.319 L 1244.37 928.519 L 1221.77 946.719 L 1194.57 960.319 L 1167.47 964.819 L 1185.57 1060.12 L 1185.57 1119.12 L 1171.97 1169.02 L 1153.87 1178.12 L 1117.67 1146.32 L 1108.57 1146.32 L 1081.37 1218.92 L 1045.17 1277.92 L 1004.47 1327.82 L 950.165 1368.72 L 922.965 1382.32 L 904.865 1377.82 L 904.865 1368.72 L 882.265 1373.22 L 859.565 1400.42 L 850.565 1400.42 L 850.565 1409.52 L 787.165 1454.92 L 769.065 1464.02 L 741.865 1464.02 L 728.365 1454.92 L 683.065 1495.72 L 633.265 1523.02 L 601.565 1513.92 L 560.865 1486.72 L 524.665 1454.92 L 515.565 1464.02 L 483.865 1459.42 L 438.665 1432.22 L 379.765 1382.32 L 366.165 1368.72 L 357.165 1368.72 L 343.565 1382.32 L 302.865 1368.72 L 257.565 1332.42 L 212.265 1287.02 L 171.565 1223.52 L 144.365 1146.32 L 126.265 1146.32 L 110.265 1163.62 L 94.565 1179.42 L 81.065 1160.02 L 71.965 1123.72 L 71.965 1032.92 L 90.065 960.319 L 49.365 955.819 L 13.165 933.119 L 4.065 910.419 L 22.165 883.219 L 81.065 828.719 L 121.765 769.719 L 144.365 719.819 L 167.065 651.719 L 167.065 620.019 L 153.465 592.719 L 153.465 524.719 L 167.065 479.319 L 189.665 456.619 L 207.765 397.619 L 189.665 379.519 L 153.465 347.719 L 126.265 302.319 L 112.665 261.519 L 112.665 184.419 L 126.265 125.419 L 144.365 89.119 L 180.565 43.719 L 212.565 20.919 L 240.865 8.719 Z M 538.265 547.319 L 416.065 560.919 L 298.365 588.219 L 230.465 615.419 L 216.865 633.519 L 194.265 719.819 L 158.065 796.919 L 121.765 846.819 L 81.065 892.219 L 72.065 901.319 L 72.065 914.919 L 153.465 914.919 L 144.465 951.219 L 117.265 1023.82 L 112.765 1055.62 L 112.765 1091.82 L 130.865 1096.42 L 167.065 1073.72 L 176.165 1073.72 L 198.765 1164.42 L 221.365 1223.42 L 262.165 1277.92 L 298.365 1309.62 L 311.965 1314.22 L 320.965 1246.12 L 339.065 1228.02 L 352.665 1268.82 L 379.865 1318.72 L 420.565 1364.12 L 456.765 1395.92 L 474.865 1400.42 L 479.465 1391.32 L 479.465 1345.92 L 483.965 1318.72 L 497.565 1332.32 L 529.165 1386.82 L 569.965 1432.22 L 610.665 1468.52 L 633.365 1473.02 L 660.465 1454.92 L 714.765 1404.92 L 746.465 1355.02 L 764.565 1318.72 L 773.665 1345.92 L 778.165 1400.42 L 805.365 1391.32 L 855.165 1345.92 L 895.865 1282.42 L 918.465 1232.52 L 927.565 1241.62 L 941.165 1309.62 L 959.265 1305.12 L 1004.47 1264.32 L 1040.77 1205.32 L 1063.37 1146.32 L 1076.97 1078.22 L 1099.57 1082.82 L 1131.27 1100.92 L 1140.27 1100.92 L 1144.87 1064.62 L 1131.27 996.619 L 1099.57 919.419 L 1099.57 910.319 L 1135.77 914.919 L 1181.07 914.919 L 1181.07 896.719 L 1144.87 865.019 L 1108.67 819.619 L 1067.87 742.419 L 1045.27 656.219 L 1031.67 619.919 L 995.469 601.819 L 904.965 574.619 L 846.065 560.919 L 723.865 547.319 L 538.265 547.319 Z"></path>
  <path class="h" d="M 597.065 406.719 L 655.865 406.719 L 814.365 420.319 L 932.065 447.519 L 1027.07 483.819 L 1054.27 502.019 L 1058.77 524.719 L 1058.77 579.119 L 1049.77 583.719 L 913.965 538.319 L 823.365 520.119 L 737.365 511.119 L 511.065 511.119 L 379.765 529.219 L 275.665 556.419 L 216.865 579.119 L 198.665 583.719 L 198.665 511.119 L 207.765 492.919 L 248.465 474.819 L 316.365 452.119 L 420.565 424.919 L 492.965 415.819 L 597.065 406.719 Z"></path>
  <path class="h" d="M 719.265 161.719 L 769.065 175.319 L 823.365 198.019 L 873.165 229.719 L 927.465 284.219 L 968.265 334.119 L 999.969 402.219 L 1004.47 433.919 L 868.665 397.619 L 728.365 374.919 L 723.765 370.419 L 719.265 247.919 L 719.265 161.719 Z"></path>
  <path class="h" d="M 515.565 161.719 L 538.165 161.719 L 529.165 374.919 L 388.865 397.619 L 266.565 429.419 L 248.465 433.919 L 257.565 393.119 L 293.765 325.019 L 329.965 279.619 L 361.665 247.919 L 415.965 207.019 L 447.665 188.919 L 497.465 166.219 L 515.565 161.719 Z"></path>
  <path class="i" d="M 329.965 1228.02 L 339.065 1228.02 L 375.265 1305.12 L 406.965 1346.02 L 443.165 1382.32 L 465.765 1395.92 L 474.865 1391.42 L 474.865 1346.02 L 483.865 1318.82 L 497.465 1323.32 L 533.665 1386.82 L 574.465 1432.22 L 619.665 1468.52 L 642.365 1464.02 L 692.165 1423.12 L 705.665 1423.12 L 714.765 1409.52 L 723.765 1409.52 L 723.765 1400.42 L 732.865 1400.42 L 732.865 1386.82 L 760.065 1382.32 L 764.565 1368.72 L 778.165 1409.52 L 791.665 1423.12 L 769.065 1441.32 L 750.965 1445.82 L 714.765 1445.82 L 714.765 1454.92 L 705.665 1459.42 L 701.165 1477.62 L 669.465 1504.82 L 633.265 1523.02 L 601.565 1513.92 L 560.865 1486.72 L 524.665 1454.92 L 515.565 1464.02 L 483.865 1459.42 L 438.665 1432.22 L 379.765 1382.32 L 366.165 1368.72 L 357.165 1368.72 L 343.565 1382.32 L 302.865 1368.72 L 262.065 1336.92 L 262.065 1318.82 L 253.065 1318.82 L 253.065 1282.52 L 289.265 1309.72 L 289.265 1318.82 L 302.865 1318.82 L 311.865 1273.42 L 320.965 1237.12 L 329.965 1228.02 Z"></path>
  <path class="j" d="M 601.565 783.319 L 655.865 783.319 L 692.165 796.919 L 705.665 815.119 L 701.165 842.319 L 678.565 865.019 L 651.365 883.219 L 655.865 914.919 L 660.465 928.519 L 701.165 942.119 L 737.365 942.119 L 760.065 924.019 L 778.165 892.219 L 800.765 892.219 L 809.765 910.419 L 796.265 951.219 L 764.565 978.419 L 741.865 987.519 L 692.165 987.519 L 655.865 973.919 L 637.765 960.319 L 615.165 964.819 L 578.965 983.019 L 560.865 987.519 L 529.165 987.519 L 488.465 973.919 L 461.265 951.219 L 447.665 928.519 L 447.665 901.319 L 452.165 892.219 L 474.865 896.819 L 501.965 933.119 L 524.665 942.119 L 560.865 942.119 L 597.065 919.519 L 601.565 883.219 L 556.365 851.419 L 547.265 833.219 L 551.765 801.519 L 578.965 787.919 L 601.565 783.319 Z"></path>
  <path class="k" d="M 210.665 69.019 L 229.065 53.719 L 228.365 87.819 L 228.965 114.719 L 233.665 153.519 L 243.965 184.419 L 262.065 211.619 L 271.665 222.119 L 284.765 234.319 L 302.865 247.919 L 289.865 267.719 L 259.165 312.619 L 234.965 352.319 L 231.365 357.719 L 216.865 347.719 L 194.165 329.619 L 162.465 275.119 L 153.465 243.419 L 153.465 175.319 L 171.565 120.819 L 194.665 87.719 L 210.665 69.019 Z"></path>
  <path class="k" d="M 1036.17 70.919 L 1051.97 84.619 L 1081.37 120.819 L 1099.47 175.319 L 1099.47 247.919 L 1076.87 302.319 L 1045.17 343.219 L 1027.07 356.819 L 1020.37 360.919 L 1018.07 356.819 L 963.665 270.619 L 951.065 247.719 L 981.865 220.719 L 1007.17 182.219 L 1028.87 126.619 L 1036.17 70.919 Z"></path>
  <path class="l" d="M 801.065 646.819 L 814.865 646.919 L 827.965 651.719 L 837.665 660.919 L 846.065 674.419 L 850.065 692.019 L 850.565 710.719 L 847.265 728.419 L 836.965 747.019 L 829.465 755.219 L 818.865 760.619 L 804.765 761.419 L 791.665 756.119 L 776.965 745.619 L 769.065 733.419 L 764.565 719.819 L 762.065 698.919 L 764.565 679.019 L 770.365 665.119 L 778.165 656.319 L 788.865 650.119 L 801.065 646.819 Z"></path>
  <path class="m" d="M 438.865 644.419 L 452.365 644.219 L 465.765 647.219 L 475.665 653.619 L 483.865 665.319 L 488.465 674.419 L 490.465 686.319 L 490.865 698.119 L 488.465 719.819 L 484.765 733.519 L 475.865 747.119 L 467.065 754.919 L 458.265 759.119 L 448.565 760.619 L 438.165 759.219 L 429.565 756.119 L 420.165 750.219 L 414.365 742.919 L 406.965 728.919 L 402.365 715.319 L 400.465 697.319 L 402.365 679.019 L 407.865 664.719 L 416.065 655.719 L 425.765 647.819 L 438.865 644.419 Z"></path>
  <path class="h" d="M 587.965 131.019 L 667.565 130.519 L 675.265 134.519 L 679.265 140.619 L 681.665 157.719 L 683.065 179.819 L 687.565 311.419 L 687.565 352.319 L 683.065 370.419 L 610.665 374.919 L 578.965 374.919 L 565.365 370.419 L 569.865 238.819 L 572.865 177.119 L 575.265 156.119 L 578.665 141.819 L 583.365 134.619 L 587.965 131.019 Z"></path>
  <path class="n" d="M 803.965 670.619 L 818.265 673.719 L 823.465 679.419 L 832.665 693.819 L 836.965 715.719 L 832.765 734.119 L 820.765 749.919 L 808.065 750.319 L 788.765 742.919 L 778.165 724.719 L 778.165 693.019 L 787.265 674.819 L 803.965 670.619 Z"></path>
  <path class="n" d="M 436.065 667.219 L 447.865 667.419 L 460.765 671.819 L 474.365 690.019 L 475.165 705.619 L 474.365 721.719 L 469.965 733.619 L 460.765 745.119 L 438.165 746.319 L 420.065 730.819 L 416.265 712.819 L 415.565 694.519 L 420.865 681.319 L 427.165 673.519 L 436.065 667.219 Z"></path>
</svg>