<svg xmlns="http://www.w3.org/2000/svg" version="1.1" xmlns:xlink="http://www.w3.org/1999/xlink" width="124.995" height="125.162"><svg xmlns="http://www.w3.org/2000/svg" version="1.1" xmlns:xlink="http://www.w3.org/1999/xlink" width="124.995" height="125.162"><svg xmlns="http://www.w3.org/2000/svg" viewBox="-0.061 0.752 124.995 125.162">
  <path d="M124.706 110.25C124.706 118.849 117.772 125.791 109.183 125.791H15.5236C6.93387 125.791 0 118.849 0 110.25V16.4837C0 7.88416 6.98561 0.942383 15.5236 0.942383H109.183C117.772 0.942383 124.706 7.88416 124.706 16.4837V110.25Z" style="fill: rgb(15, 20, 11);"></path>
  <path d="M0 63.5225V110.25C0 118.849 6.98561 125.791 15.5753 125.791H109.183C117.772 125.791 124.758 118.849 124.758 110.25V63.5225H0Z" fill="url(#paint0_linear9772)" style=""></path>
  <path _ngcontent-ng-c1232384199="" opacity="0.3" d="M109.909 109.11C109.909 111.026 108.615 112.581 107.011 112.581H90.8665C89.2624 112.581 87.9688 111.026 87.9688 109.11V17.6232C87.9688 15.7065 89.2624 14.1523 90.8665 14.1523H107.011C108.615 14.1523 109.909 15.7065 109.909 17.6232V109.11Z" fill="white"></path>
  <defs>
    <linearGradient x1="62.3768" y1="36.3949" x2="62.3768" y2="156.837" gradientUnits="userSpaceOnUse" id="paint0_linear9772" gradientTransform="matrix(0.999944, -0.010588, 0.012149, 1.147446, -1.902019, -22.464336)">
      <stop stop-color="#c6b298"></stop>
      <stop offset="1" stop-color="#cc7504"></stop>
    </linearGradient>
  </defs>
</svg></svg><style>@media (prefers-color-scheme: light) { :root { filter: none; } }
@media (prefers-color-scheme: dark) { :root { filter: none; } }
</style></svg>